<mxfile host="Electron" modified="2024-03-20T20:34:33.961Z" agent="Mozilla/5.0 (X11; Linux x86_64) AppleWebKit/537.36 (KHTML, like Gecko) draw.io/24.0.4 Chrome/120.0.6099.109 Electron/28.1.0 Safari/537.36" etag="Id3eOstWHPu9Lnq1aa1_" version="24.0.4" type="device">
  <diagram name="olo_base_fifo_async" id="sQZPAQ0m2a0brsjAJA3f">
    <mxGraphModel dx="656" dy="401" grid="1" gridSize="10" guides="1" tooltips="1" connect="1" arrows="1" fold="1" page="1" pageScale="1" pageWidth="10000" pageHeight="10000" math="0" shadow="0">
      <root>
        <mxCell id="0" />
        <mxCell id="1" parent="0" />
        <mxCell id="BS4bdiccRaYcMO0Jhtpn-1" value="" style="endArrow=none;dashed=1;html=1;dashPattern=1 3;strokeWidth=2;rounded=0;" edge="1" parent="1">
          <mxGeometry width="50" height="50" relative="1" as="geometry">
            <mxPoint x="700" y="660" as="sourcePoint" />
            <mxPoint x="699.66" y="300" as="targetPoint" />
          </mxGeometry>
        </mxCell>
        <mxCell id="BS4bdiccRaYcMO0Jhtpn-2" value="In_Valid" style="text;html=1;align=right;verticalAlign=middle;whiteSpace=wrap;rounded=0;" vertex="1" parent="1">
          <mxGeometry x="340" y="370" width="60" height="20" as="geometry" />
        </mxCell>
        <mxCell id="BS4bdiccRaYcMO0Jhtpn-3" value="olo_base_ram_sdp" style="rounded=1;whiteSpace=wrap;html=1;fillColor=#f5f5f5;strokeColor=#666666;fontColor=#333333;" vertex="1" parent="1">
          <mxGeometry x="640" y="320" width="120" height="80" as="geometry" />
        </mxCell>
        <mxCell id="BS4bdiccRaYcMO0Jhtpn-4" value="olo_base_cc_bits" style="rounded=1;whiteSpace=wrap;html=1;fillColor=#f5f5f5;strokeColor=#666666;fontColor=#333333;" vertex="1" parent="1">
          <mxGeometry x="640" y="480" width="120" height="40" as="geometry" />
        </mxCell>
        <mxCell id="BS4bdiccRaYcMO0Jhtpn-5" value="olo_base_cc_bits" style="rounded=1;whiteSpace=wrap;html=1;fillColor=#f5f5f5;strokeColor=#666666;fontColor=#333333;" vertex="1" parent="1">
          <mxGeometry x="640" y="540" width="120" height="40" as="geometry" />
        </mxCell>
        <mxCell id="BS4bdiccRaYcMO0Jhtpn-6" value="olo_base_cc_reset" style="rounded=1;whiteSpace=wrap;html=1;fillColor=#f5f5f5;strokeColor=#666666;fontColor=#333333;" vertex="1" parent="1">
          <mxGeometry x="640" y="600" width="120" height="40" as="geometry" />
        </mxCell>
        <mxCell id="BS4bdiccRaYcMO0Jhtpn-7" value="" style="endArrow=classic;html=1;rounded=0;" edge="1" parent="1">
          <mxGeometry width="50" height="50" relative="1" as="geometry">
            <mxPoint x="400" y="630" as="sourcePoint" />
            <mxPoint x="640" y="630" as="targetPoint" />
          </mxGeometry>
        </mxCell>
        <mxCell id="BS4bdiccRaYcMO0Jhtpn-8" value="WrAddr" style="rounded=1;whiteSpace=wrap;html=1;fillColor=#f8cecc;strokeColor=#b85450;" vertex="1" parent="1">
          <mxGeometry x="440" y="360" width="80" height="40" as="geometry" />
        </mxCell>
        <mxCell id="BS4bdiccRaYcMO0Jhtpn-9" value="LevelCalc" style="rounded=1;whiteSpace=wrap;html=1;fillColor=#f8cecc;strokeColor=#b85450;" vertex="1" parent="1">
          <mxGeometry x="440" y="420" width="80" height="40" as="geometry" />
        </mxCell>
        <mxCell id="BS4bdiccRaYcMO0Jhtpn-10" value="Bin2Gray" style="rounded=1;whiteSpace=wrap;html=1;fillColor=#f8cecc;strokeColor=#b85450;" vertex="1" parent="1">
          <mxGeometry x="560" y="480" width="60" height="40" as="geometry" />
        </mxCell>
        <mxCell id="BS4bdiccRaYcMO0Jhtpn-11" value="Gray2Bin" style="rounded=1;whiteSpace=wrap;html=1;fillColor=#f8cecc;strokeColor=#b85450;" vertex="1" parent="1">
          <mxGeometry x="560" y="540" width="60" height="40" as="geometry" />
        </mxCell>
        <mxCell id="BS4bdiccRaYcMO0Jhtpn-12" value="Bin2Gray" style="rounded=1;whiteSpace=wrap;html=1;fillColor=#dae8fc;strokeColor=#6c8ebf;" vertex="1" parent="1">
          <mxGeometry x="780" y="540" width="60" height="40" as="geometry" />
        </mxCell>
        <mxCell id="BS4bdiccRaYcMO0Jhtpn-13" value="Gray2Bin" style="rounded=1;whiteSpace=wrap;html=1;fillColor=#dae8fc;strokeColor=#6c8ebf;" vertex="1" parent="1">
          <mxGeometry x="780" y="480" width="60" height="40" as="geometry" />
        </mxCell>
        <mxCell id="BS4bdiccRaYcMO0Jhtpn-14" value="RdAddr" style="rounded=1;whiteSpace=wrap;html=1;fillColor=#dae8fc;strokeColor=#6c8ebf;" vertex="1" parent="1">
          <mxGeometry x="880" y="360" width="80" height="40" as="geometry" />
        </mxCell>
        <mxCell id="BS4bdiccRaYcMO0Jhtpn-15" value="LevelCalc" style="rounded=1;whiteSpace=wrap;html=1;fillColor=#dae8fc;strokeColor=#6c8ebf;" vertex="1" parent="1">
          <mxGeometry x="880" y="420" width="80" height="40" as="geometry" />
        </mxCell>
        <mxCell id="BS4bdiccRaYcMO0Jhtpn-16" value="" style="endArrow=classic;html=1;rounded=0;" edge="1" parent="1">
          <mxGeometry width="50" height="50" relative="1" as="geometry">
            <mxPoint x="400" y="340" as="sourcePoint" />
            <mxPoint x="640" y="340" as="targetPoint" />
          </mxGeometry>
        </mxCell>
        <mxCell id="BS4bdiccRaYcMO0Jhtpn-17" value="" style="endArrow=classic;html=1;rounded=0;" edge="1" parent="1">
          <mxGeometry width="50" height="50" relative="1" as="geometry">
            <mxPoint x="400" y="380" as="sourcePoint" />
            <mxPoint x="440" y="379.66" as="targetPoint" />
          </mxGeometry>
        </mxCell>
        <mxCell id="BS4bdiccRaYcMO0Jhtpn-18" value="In_Data" style="text;html=1;align=right;verticalAlign=middle;whiteSpace=wrap;rounded=0;" vertex="1" parent="1">
          <mxGeometry x="340" y="330" width="60" height="20" as="geometry" />
        </mxCell>
        <mxCell id="BS4bdiccRaYcMO0Jhtpn-19" value="" style="endArrow=classic;html=1;rounded=0;" edge="1" parent="1">
          <mxGeometry width="50" height="50" relative="1" as="geometry">
            <mxPoint x="440" y="440" as="sourcePoint" />
            <mxPoint x="400" y="440" as="targetPoint" />
          </mxGeometry>
        </mxCell>
        <mxCell id="BS4bdiccRaYcMO0Jhtpn-20" value="In_&amp;lt;Status&amp;gt;&lt;div&gt;In_Ready&lt;/div&gt;" style="text;html=1;align=right;verticalAlign=middle;whiteSpace=wrap;rounded=0;" vertex="1" parent="1">
          <mxGeometry x="320" y="430" width="80" height="20" as="geometry" />
        </mxCell>
        <mxCell id="BS4bdiccRaYcMO0Jhtpn-21" value="" style="endArrow=classic;html=1;rounded=0;" edge="1" parent="1">
          <mxGeometry width="50" height="50" relative="1" as="geometry">
            <mxPoint x="520" y="379.66" as="sourcePoint" />
            <mxPoint x="640" y="379.66" as="targetPoint" />
          </mxGeometry>
        </mxCell>
        <mxCell id="BS4bdiccRaYcMO0Jhtpn-22" value="" style="endArrow=none;html=1;rounded=0;startArrow=oval;startFill=1;" edge="1" parent="1">
          <mxGeometry width="50" height="50" relative="1" as="geometry">
            <mxPoint x="540" y="380" as="sourcePoint" />
            <mxPoint x="540" y="500" as="targetPoint" />
            <Array as="points" />
          </mxGeometry>
        </mxCell>
        <mxCell id="BS4bdiccRaYcMO0Jhtpn-23" value="" style="endArrow=classic;html=1;rounded=0;" edge="1" parent="1">
          <mxGeometry width="50" height="50" relative="1" as="geometry">
            <mxPoint x="540" y="499.83" as="sourcePoint" />
            <mxPoint x="560" y="499.83" as="targetPoint" />
          </mxGeometry>
        </mxCell>
        <mxCell id="BS4bdiccRaYcMO0Jhtpn-24" value="" style="endArrow=classic;html=1;rounded=0;startArrow=oval;startFill=1;entryX=1;entryY=0.5;entryDx=0;entryDy=0;" edge="1" parent="1" target="BS4bdiccRaYcMO0Jhtpn-9">
          <mxGeometry width="50" height="50" relative="1" as="geometry">
            <mxPoint x="540" y="439.9" as="sourcePoint" />
            <mxPoint x="560" y="439.9" as="targetPoint" />
          </mxGeometry>
        </mxCell>
        <mxCell id="BS4bdiccRaYcMO0Jhtpn-25" value="" style="endArrow=classic;html=1;rounded=0;entryX=0.5;entryY=1;entryDx=0;entryDy=0;" edge="1" parent="1" target="BS4bdiccRaYcMO0Jhtpn-9">
          <mxGeometry width="50" height="50" relative="1" as="geometry">
            <mxPoint x="560" y="560" as="sourcePoint" />
            <mxPoint x="610" y="510" as="targetPoint" />
            <Array as="points">
              <mxPoint x="480" y="560" />
            </Array>
          </mxGeometry>
        </mxCell>
        <mxCell id="BS4bdiccRaYcMO0Jhtpn-26" value="Internally used Reset" style="text;html=1;align=right;verticalAlign=middle;whiteSpace=wrap;rounded=0;" vertex="1" parent="1">
          <mxGeometry x="520" y="600" width="80" height="20" as="geometry" />
        </mxCell>
        <mxCell id="BS4bdiccRaYcMO0Jhtpn-27" value="" style="endArrow=classic;html=1;rounded=0;" edge="1" parent="1">
          <mxGeometry width="50" height="50" relative="1" as="geometry">
            <mxPoint x="640" y="610" as="sourcePoint" />
            <mxPoint x="600" y="610" as="targetPoint" />
          </mxGeometry>
        </mxCell>
        <mxCell id="BS4bdiccRaYcMO0Jhtpn-28" value="In_Rst" style="text;html=1;align=right;verticalAlign=middle;whiteSpace=wrap;rounded=0;" vertex="1" parent="1">
          <mxGeometry x="340" y="620" width="60" height="20" as="geometry" />
        </mxCell>
        <mxCell id="BS4bdiccRaYcMO0Jhtpn-29" value="" style="endArrow=none;html=1;rounded=0;startArrow=classic;startFill=1;endFill=0;" edge="1" parent="1">
          <mxGeometry width="50" height="50" relative="1" as="geometry">
            <mxPoint x="760" y="339.71" as="sourcePoint" />
            <mxPoint x="1000" y="339.71" as="targetPoint" />
          </mxGeometry>
        </mxCell>
        <mxCell id="BS4bdiccRaYcMO0Jhtpn-30" value="" style="endArrow=none;html=1;rounded=0;startArrow=classic;startFill=1;endFill=0;" edge="1" parent="1">
          <mxGeometry width="50" height="50" relative="1" as="geometry">
            <mxPoint x="960" y="380.14" as="sourcePoint" />
            <mxPoint x="1000" y="379.8" as="targetPoint" />
          </mxGeometry>
        </mxCell>
        <mxCell id="BS4bdiccRaYcMO0Jhtpn-31" value="" style="endArrow=none;html=1;rounded=0;startArrow=classic;startFill=1;endFill=0;" edge="1" parent="1">
          <mxGeometry width="50" height="50" relative="1" as="geometry">
            <mxPoint x="760" y="379.8" as="sourcePoint" />
            <mxPoint x="880" y="379.8" as="targetPoint" />
          </mxGeometry>
        </mxCell>
        <mxCell id="BS4bdiccRaYcMO0Jhtpn-32" value="" style="endArrow=none;html=1;rounded=0;startArrow=oval;startFill=1;" edge="1" parent="1">
          <mxGeometry width="50" height="50" relative="1" as="geometry">
            <mxPoint x="860" y="380" as="sourcePoint" />
            <mxPoint x="860" y="560" as="targetPoint" />
            <Array as="points" />
          </mxGeometry>
        </mxCell>
        <mxCell id="BS4bdiccRaYcMO0Jhtpn-33" value="" style="endArrow=none;html=1;rounded=0;startArrow=classic;startFill=1;endFill=0;" edge="1" parent="1">
          <mxGeometry width="50" height="50" relative="1" as="geometry">
            <mxPoint x="840" y="559.8" as="sourcePoint" />
            <mxPoint x="860" y="559.8" as="targetPoint" />
          </mxGeometry>
        </mxCell>
        <mxCell id="BS4bdiccRaYcMO0Jhtpn-34" value="" style="endArrow=classic;html=1;rounded=0;" edge="1" parent="1">
          <mxGeometry width="50" height="50" relative="1" as="geometry">
            <mxPoint x="620" y="499.83" as="sourcePoint" />
            <mxPoint x="640" y="499.83" as="targetPoint" />
          </mxGeometry>
        </mxCell>
        <mxCell id="BS4bdiccRaYcMO0Jhtpn-35" value="" style="endArrow=none;html=1;rounded=0;startArrow=classic;startFill=1;endFill=0;" edge="1" parent="1">
          <mxGeometry width="50" height="50" relative="1" as="geometry">
            <mxPoint x="620" y="559.8299999999999" as="sourcePoint" />
            <mxPoint x="640" y="559.8299999999999" as="targetPoint" />
          </mxGeometry>
        </mxCell>
        <mxCell id="BS4bdiccRaYcMO0Jhtpn-36" value="" style="endArrow=classic;html=1;rounded=0;" edge="1" parent="1">
          <mxGeometry width="50" height="50" relative="1" as="geometry">
            <mxPoint x="760" y="499.83" as="sourcePoint" />
            <mxPoint x="780" y="499.83" as="targetPoint" />
          </mxGeometry>
        </mxCell>
        <mxCell id="BS4bdiccRaYcMO0Jhtpn-37" value="" style="endArrow=classic;html=1;rounded=0;exitX=1;exitY=0.5;exitDx=0;exitDy=0;entryX=0.5;entryY=1;entryDx=0;entryDy=0;" edge="1" parent="1" source="BS4bdiccRaYcMO0Jhtpn-13" target="BS4bdiccRaYcMO0Jhtpn-15">
          <mxGeometry width="50" height="50" relative="1" as="geometry">
            <mxPoint x="870" y="570" as="sourcePoint" />
            <mxPoint x="920" y="520" as="targetPoint" />
            <Array as="points">
              <mxPoint x="920" y="500" />
            </Array>
          </mxGeometry>
        </mxCell>
        <mxCell id="BS4bdiccRaYcMO0Jhtpn-38" value="" style="endArrow=none;html=1;rounded=0;startArrow=classic;startFill=1;endFill=0;" edge="1" parent="1">
          <mxGeometry width="50" height="50" relative="1" as="geometry">
            <mxPoint x="760" y="559.8299999999999" as="sourcePoint" />
            <mxPoint x="780" y="559.8299999999999" as="targetPoint" />
          </mxGeometry>
        </mxCell>
        <mxCell id="BS4bdiccRaYcMO0Jhtpn-39" value="" style="endArrow=oval;html=1;rounded=0;startArrow=classic;startFill=1;entryX=1;entryY=0.5;entryDx=0;entryDy=0;endFill=1;" edge="1" parent="1">
          <mxGeometry width="50" height="50" relative="1" as="geometry">
            <mxPoint x="880" y="439.83" as="sourcePoint" />
            <mxPoint x="860" y="439.93" as="targetPoint" />
          </mxGeometry>
        </mxCell>
        <mxCell id="BS4bdiccRaYcMO0Jhtpn-40" value="" style="endArrow=none;html=1;rounded=0;startArrow=classic;startFill=1;endFill=0;" edge="1" parent="1">
          <mxGeometry width="50" height="50" relative="1" as="geometry">
            <mxPoint x="800" y="609.76" as="sourcePoint" />
            <mxPoint x="760" y="609.76" as="targetPoint" />
          </mxGeometry>
        </mxCell>
        <mxCell id="BS4bdiccRaYcMO0Jhtpn-41" value="" style="endArrow=none;html=1;rounded=0;startArrow=classic;startFill=1;endFill=0;" edge="1" parent="1">
          <mxGeometry width="50" height="50" relative="1" as="geometry">
            <mxPoint x="760" y="630" as="sourcePoint" />
            <mxPoint x="1000" y="630" as="targetPoint" />
          </mxGeometry>
        </mxCell>
        <mxCell id="BS4bdiccRaYcMO0Jhtpn-42" value="Out_Data" style="text;html=1;align=left;verticalAlign=middle;whiteSpace=wrap;rounded=0;" vertex="1" parent="1">
          <mxGeometry x="1000" y="330" width="60" height="20" as="geometry" />
        </mxCell>
        <mxCell id="BS4bdiccRaYcMO0Jhtpn-43" value="Out_Ready" style="text;html=1;align=left;verticalAlign=middle;whiteSpace=wrap;rounded=0;" vertex="1" parent="1">
          <mxGeometry x="1000" y="370" width="60" height="20" as="geometry" />
        </mxCell>
        <mxCell id="BS4bdiccRaYcMO0Jhtpn-44" value="Out_&amp;lt;Status&amp;gt;&lt;div&gt;Out_Valid&lt;/div&gt;" style="text;html=1;align=left;verticalAlign=middle;whiteSpace=wrap;rounded=0;" vertex="1" parent="1">
          <mxGeometry x="1000" y="430" width="80" height="20" as="geometry" />
        </mxCell>
        <mxCell id="BS4bdiccRaYcMO0Jhtpn-45" value="" style="endArrow=classic;html=1;rounded=0;" edge="1" parent="1">
          <mxGeometry width="50" height="50" relative="1" as="geometry">
            <mxPoint x="960" y="440.05" as="sourcePoint" />
            <mxPoint x="1000" y="439.71000000000004" as="targetPoint" />
          </mxGeometry>
        </mxCell>
        <mxCell id="BS4bdiccRaYcMO0Jhtpn-46" value="Internally used Reset" style="text;html=1;align=left;verticalAlign=middle;whiteSpace=wrap;rounded=0;" vertex="1" parent="1">
          <mxGeometry x="800" y="600" width="80" height="20" as="geometry" />
        </mxCell>
        <mxCell id="BS4bdiccRaYcMO0Jhtpn-47" value="Out_Rst" style="text;html=1;align=left;verticalAlign=middle;whiteSpace=wrap;rounded=0;" vertex="1" parent="1">
          <mxGeometry x="1000" y="620" width="60" height="20" as="geometry" />
        </mxCell>
      </root>
    </mxGraphModel>
  </diagram>
</mxfile>
